<svg width="284" height="97" viewBox="0 0 284 97" fill="none" xmlns="http://www.w3.org/2000/svg">
<circle cx="48.0008" cy="48.0008" r="48.0008" fill="#3B82F6"/>
<path d="M34.6255 15.7346C22.1002 17.6951 18.515 30.8013 18.2881 37.1094L24.9592 26.6262C34.2171 16.7148 57.7702 18.9567 68.3895 21.3165C69.6965 19.356 69.3879 16.7784 69.0702 15.7346C62.8076 14.9177 47.1509 13.7741 34.6255 15.7346Z" fill="white"/>
<path d="M35.9863 15.326C33.5902 15.6528 30.8128 16.7329 29.7236 17.2321L35.9863 16.9598V15.326Z" fill="white"/>
<path d="M30.4629 16.9234C46.2429 11.0705 62.8845 13.4639 69.2328 15.3922L67.6004 16.9234H30.4629Z" fill="white"/>
<path d="M69.7504 15.8705L69.2058 15.7344H69.0696L68.6612 15.8705H67.7082L65.666 20.7717C66.1017 20.8807 68.2074 21.3617 69.2058 21.5886C70.4039 19.9549 70.068 17.0958 69.7504 15.8705Z" fill="white"/>
<path d="M33.1271 22.4055C34.543 21.2074 38.346 20.2725 40.0705 19.9549L39.7983 19.4103L31.085 19.9549V22.4055H33.1271Z" fill="white"/>
<path d="M62.4169 14.4009C52.1188 14.9245 45.617 16.3645 43.6533 17.0191L44.3079 18.5463L62.4169 16.1463V14.4009Z" fill="white"/>
<path d="M69.2326 15.3849C69.7249 15.508 69.848 16.0516 69.848 16.308H68.6172V15.3849H69.2326Z" fill="white"/>
<path d="M17.4707 51.5406C17.4707 25.3136 21.7402 21.0441 47.9672 21.0441C74.1942 21.0441 78.4637 25.3136 78.4637 51.5406C78.4637 77.7676 74.1942 82.0371 47.9672 82.0371C21.7402 82.0371 17.4707 77.7676 17.4707 51.5406Z" fill="white"/>
<path fill-rule="evenodd" clip-rule="evenodd" d="M44.6819 37.6425C45.8981 36.7911 46.9492 35.2914 46.0169 34.133C43.5733 31.0971 34.6184 31.1022 33.6321 33.9989C32.6359 36.9247 32.8613 42.5545 33.2763 45.3266C33.3975 46.3014 34.5512 46.235 35.216 45.5153C37.127 43.4462 40.1218 40.8352 44.6819 37.6425ZM46.0169 68.4639C46.9492 67.3055 45.8981 65.8058 44.6819 64.9544C40.1218 61.7618 37.127 59.1507 35.216 57.0816C34.5512 56.3619 33.3975 56.2955 33.2763 57.2703C32.8613 60.0424 32.6359 65.6722 33.632 68.598C34.6184 71.4948 43.5733 71.4998 46.0169 68.4639ZM34.7752 51.8802H34.7797C34.6678 53.3349 36.6144 56.9133 45.3421 63.0021C57.8372 71.7192 60.5594 72.7212 62.746 68.563C63.7421 66.6689 62.3491 64.9619 60.537 62.7412C58.3726 60.0888 55.6102 56.7036 55.606 51.3916C55.606 46.0725 58.371 42.6842 60.537 40.0298C62.3492 37.809 63.7421 36.102 62.7461 34.2079C60.5594 30.0497 57.8373 31.0517 45.3421 39.7688C36.8318 45.7059 34.7689 49.2561 34.7752 50.778V51.8802Z" fill="#3B82F6"/>
<path d="M120.182 7.56608C120.806 7.51808 121.406 7.63808 121.982 7.92608C122.558 8.16609 123.062 8.50209 123.494 8.9341C123.974 9.36611 124.334 9.89412 124.574 10.5181C124.814 11.0941 124.934 11.6941 124.934 12.3182V20.5983C126.614 19.7343 128.342 19.1823 130.118 18.9423C131.942 18.6543 133.742 18.6543 135.518 18.9423C137.294 19.1823 139.022 19.7103 140.702 20.5263C142.382 21.2943 143.942 22.3503 145.382 23.6943C147.062 25.4224 148.311 27.2944 149.127 29.3104C149.991 31.2785 150.423 33.5345 150.423 36.0786C150.423 38.4786 149.943 40.7346 148.983 42.8467C148.071 44.9587 146.822 46.8067 145.238 48.3908C143.654 49.9748 141.806 51.2228 139.694 52.1348C137.582 53.0468 135.35 53.5029 132.998 53.5029C130.694 53.5029 128.486 53.0468 126.374 52.1348C124.262 51.1748 122.39 49.9028 120.758 48.3188C119.174 46.7347 117.902 44.8867 116.942 42.7747C115.982 40.6626 115.502 38.4306 115.502 36.0786V11.9582C115.502 11.3821 115.646 10.8301 115.934 10.3021C116.222 9.72611 116.582 9.24611 117.014 8.8621C117.446 8.43009 117.926 8.09409 118.454 7.85408C119.03 7.61408 119.606 7.51808 120.182 7.56608ZM124.934 36.0786C124.934 37.1826 125.15 38.2386 125.582 39.2466C126.014 40.2066 126.59 41.0466 127.31 41.7667C128.078 42.4867 128.942 43.0627 129.902 43.4947C130.862 43.9267 131.894 44.1427 132.998 44.1427C134.054 44.1427 135.062 43.9267 136.022 43.4947C137.03 43.0627 137.894 42.4867 138.614 41.7667C139.382 41.0466 139.982 40.2066 140.414 39.2466C140.846 38.2386 141.062 37.1826 141.062 36.0786C141.062 34.9745 140.846 33.9425 140.414 32.9825C139.982 31.9745 139.382 31.1105 138.614 30.3905C137.894 29.6705 137.03 29.0944 136.022 28.6624C135.062 28.2304 134.054 28.0144 132.998 28.0144C131.894 28.0144 130.862 28.2544 129.902 28.7344C128.942 29.1664 128.078 29.7665 127.31 30.5345C126.59 31.2545 126.014 32.1185 125.582 33.1265C125.15 34.0865 124.934 35.0705 124.934 36.0786Z" fill="#2A2A2A"/>
<path d="M170.76 18.7263C172.92 18.9663 174.936 19.5903 176.808 20.5983C178.728 21.6063 180.36 22.9023 181.704 24.4864C183.096 26.0224 184.176 27.7984 184.944 29.8145C185.76 31.7825 186.168 33.8705 186.168 36.0786V48.8228C186.168 50.1188 185.688 51.2228 184.728 52.1348C183.768 53.0468 182.688 53.5029 181.488 53.5029C179.808 53.5029 178.464 52.7348 177.456 51.1988C177.216 51.2948 177 51.4148 176.808 51.5588C176.616 51.6548 176.424 51.7508 176.232 51.8468C175.08 52.3748 173.904 52.7828 172.704 53.0709C171.456 53.3589 170.136 53.5029 168.744 53.5029C165.144 53.5029 161.928 52.5428 159.096 50.6228C156.264 48.6548 154.152 46.1347 152.76 43.0627C152.28 41.9587 151.896 40.8306 151.608 39.6786C151.368 38.5266 151.248 37.3266 151.248 36.0786C151.248 34.8305 151.368 33.6305 151.608 32.4785C151.896 31.3265 152.28 30.1985 152.76 29.0944C154.152 25.9744 156.264 23.4543 159.096 21.5343C161.928 19.6143 165.144 18.6543 168.744 18.6543C169.128 18.6543 169.464 18.6543 169.752 18.6543C170.088 18.6543 170.424 18.6783 170.76 18.7263ZM168.672 44.1427C169.776 44.1427 170.808 43.9507 171.768 43.5667C172.776 43.1347 173.64 42.5587 174.36 41.8387C175.08 41.1186 175.656 40.2786 176.088 39.3186C176.52 38.3106 176.736 37.2306 176.736 36.0786C176.736 35.0225 176.52 34.0145 176.088 33.0545C175.656 32.0465 175.056 31.1825 174.288 30.4625C173.568 29.6945 172.704 29.0944 171.696 28.6624C170.736 28.2304 169.728 28.0144 168.672 28.0144C167.616 28.0144 166.608 28.2304 165.648 28.6624C164.688 29.0944 163.824 29.6945 163.056 30.4625C162.336 31.1825 161.76 32.0465 161.328 33.0545C160.896 34.0145 160.68 35.0225 160.68 36.0786C160.68 37.1826 160.896 38.2386 161.328 39.2466C161.808 40.2066 162.408 41.0466 163.128 41.7667C163.896 42.4867 164.76 43.0627 165.72 43.4947C166.68 43.9267 167.664 44.1427 168.672 44.1427Z" fill="#2A2A2A"/>
<path d="M192.161 18.5823C193.361 18.5823 194.441 18.9903 195.401 19.8063C196.409 20.6223 196.913 21.6783 196.913 22.9743V36.0066C196.913 37.1106 197.105 38.1426 197.489 39.1026C197.921 40.0626 198.497 40.9026 199.217 41.6227C199.937 42.3427 200.777 42.9187 201.737 43.3507C202.745 43.7827 203.825 43.9987 204.977 43.9987C205.985 43.9987 206.969 43.8067 207.929 43.4227C208.937 43.0387 209.801 42.5107 210.521 41.8387C211.289 41.1666 211.889 40.3746 212.321 39.4626C212.801 38.5026 213.041 37.4706 213.041 36.3666V23.1903C213.041 21.9423 213.473 20.8623 214.337 19.9503C215.249 19.0383 216.377 18.5823 217.721 18.5823C218.969 18.5823 220.073 19.0143 221.033 19.8783C221.993 20.6943 222.473 21.7263 222.473 22.9743V59.983C222.473 61.231 221.993 62.287 221.033 63.151C220.073 64.015 218.969 64.447 217.721 64.447C216.521 64.447 215.441 64.015 214.481 63.151C213.521 62.287 213.041 61.159 213.041 59.767V51.4868C211.937 52.1588 210.665 52.6628 209.225 52.9988C207.833 53.2869 206.417 53.4309 204.977 53.4309C202.625 53.4309 200.393 52.9748 198.281 52.0628C196.169 51.1508 194.297 49.9028 192.665 48.3188C191.081 46.7347 189.809 44.8627 188.849 42.7027C187.937 40.4946 187.481 38.0946 187.481 35.5026V23.1903C187.481 21.9423 187.913 20.8623 188.777 19.9503C189.689 19.0383 190.817 18.5823 192.161 18.5823Z" fill="#2A2A2A"/>
<path d="M244.311 18.7263C246.471 18.9663 248.487 19.5903 250.359 20.5983C252.279 21.6063 253.911 22.9023 255.255 24.4864C256.647 26.0224 257.727 27.7984 258.495 29.8145C259.311 31.7825 259.719 33.8705 259.719 36.0786V48.8228C259.719 50.1188 259.239 51.2228 258.279 52.1348C257.319 53.0468 256.239 53.5029 255.039 53.5029C253.359 53.5029 252.015 52.7348 251.007 51.1988C250.767 51.2948 250.551 51.4148 250.359 51.5588C250.167 51.6548 249.975 51.7508 249.783 51.8468C248.631 52.3748 247.455 52.7828 246.255 53.0709C245.007 53.3589 243.687 53.5029 242.295 53.5029C238.695 53.5029 235.479 52.5428 232.647 50.6228C229.815 48.6548 227.703 46.1347 226.311 43.0627C225.831 41.9587 225.447 40.8306 225.159 39.6786C224.919 38.5266 224.799 37.3266 224.799 36.0786C224.799 34.8305 224.919 33.6305 225.159 32.4785C225.447 31.3265 225.831 30.1985 226.311 29.0944C227.703 25.9744 229.815 23.4543 232.647 21.5343C235.479 19.6143 238.695 18.6543 242.295 18.6543C242.679 18.6543 243.015 18.6543 243.303 18.6543C243.639 18.6543 243.975 18.6783 244.311 18.7263ZM242.223 44.1427C243.327 44.1427 244.359 43.9507 245.319 43.5667C246.327 43.1347 247.191 42.5587 247.911 41.8387C248.631 41.1186 249.207 40.2786 249.639 39.3186C250.071 38.3106 250.287 37.2306 250.287 36.0786C250.287 35.0225 250.071 34.0145 249.639 33.0545C249.207 32.0465 248.607 31.1825 247.839 30.4625C247.119 29.6945 246.255 29.0944 245.247 28.6624C244.287 28.2304 243.279 28.0144 242.223 28.0144C241.167 28.0144 240.159 28.2304 239.199 28.6624C238.239 29.0944 237.375 29.6945 236.607 30.4625C235.887 31.1825 235.311 32.0465 234.879 33.0545C234.447 34.0145 234.231 35.0225 234.231 36.0786C234.231 37.1826 234.447 38.2386 234.879 39.2466C235.359 40.2066 235.959 41.0466 236.679 41.7667C237.447 42.4867 238.311 43.0627 239.271 43.4947C240.231 43.9267 241.215 44.1427 242.223 44.1427Z" fill="#2A2A2A"/>
<path d="M266.504 53.5749C265.208 53.5749 264.128 53.1669 263.264 52.3508C262.4 51.4868 261.92 50.3588 261.824 48.9668V35.6466C261.872 33.3425 262.352 31.1825 263.264 29.1664C264.224 27.1024 265.472 25.3264 267.008 23.8384C268.592 22.3023 270.416 21.1023 272.48 20.2383C274.592 19.3263 276.824 18.8223 279.176 18.7263C280.52 18.7263 281.624 19.1823 282.488 20.0943C283.4 21.0063 283.904 22.1103 284 23.4063C284 24.7024 283.544 25.8064 282.632 26.7184C281.72 27.5824 280.592 28.0384 279.248 28.0864C278.144 28.0864 277.112 28.3024 276.152 28.7344C275.192 29.1184 274.352 29.6705 273.632 30.3905C272.912 31.1105 272.336 31.9745 271.904 32.9825C271.472 33.9425 271.256 34.9985 271.256 36.1506V49.2548C271.16 50.5028 270.68 51.5348 269.816 52.3508C269 53.1669 267.896 53.5749 266.504 53.5749Z" fill="#2A2A2A"/>
<path d="M119.423 79.2948H116.583V78.1808H119.423C119.973 78.1808 120.418 78.0956 120.759 77.9253C121.1 77.755 121.348 77.5185 121.504 77.2157C121.664 76.913 121.745 76.5676 121.745 76.1797C121.745 75.8249 121.664 75.4914 121.504 75.1792C121.348 74.867 121.1 74.6162 120.759 74.427C120.418 74.2331 119.973 74.1361 119.423 74.1361H116.911V83.3466H115.502V73.0149H119.423C120.226 73.0149 120.905 73.1498 121.46 73.4194C122.015 73.6891 122.436 74.0628 122.723 74.5406C123.01 75.0136 123.154 75.5553 123.154 76.1655C123.154 76.8278 123.01 77.3931 122.723 77.8614C122.436 78.3298 122.015 78.6869 121.46 78.9329C120.905 79.1742 120.226 79.2948 119.423 79.2948Z" fill="#2A2A2A"/>
<path d="M124.271 79.5929V79.4296C124.271 78.8762 124.354 78.3629 124.519 77.8898C124.685 77.412 124.923 76.9981 125.235 76.648C125.546 76.2933 125.924 76.0189 126.367 75.8249C126.81 75.6262 127.306 75.5269 127.856 75.5269C128.411 75.5269 128.91 75.6262 129.353 75.8249C129.801 76.0189 130.18 76.2933 130.492 76.648C130.808 76.9981 131.049 77.412 131.215 77.8898C131.38 78.3629 131.463 78.8762 131.463 79.4296V79.5929C131.463 80.1463 131.38 80.6596 131.215 81.1327C131.049 81.6057 130.808 82.0197 130.492 82.3744C130.18 82.7245 129.803 82.9989 129.36 83.1976C128.922 83.3915 128.426 83.4885 127.871 83.4885C127.316 83.4885 126.817 83.3915 126.374 83.1976C125.931 82.9989 125.551 82.7245 125.235 82.3744C124.923 82.0197 124.685 81.6057 124.519 81.1327C124.354 80.6596 124.271 80.1463 124.271 79.5929ZM125.622 79.4296V79.5929C125.622 79.976 125.668 80.3379 125.761 80.6785C125.853 81.0144 125.992 81.3124 126.177 81.5726C126.367 81.8328 126.603 82.0386 126.885 82.19C127.167 82.3366 127.496 82.4099 127.871 82.4099C128.241 82.4099 128.564 82.3366 128.842 82.19C129.124 82.0386 129.358 81.8328 129.543 81.5726C129.728 81.3124 129.866 81.0144 129.959 80.6785C130.056 80.3379 130.105 79.976 130.105 79.5929V79.4296C130.105 79.0512 130.056 78.694 129.959 78.3582C129.866 78.0176 129.725 77.7172 129.535 77.457C129.35 77.1921 129.117 76.9839 128.834 76.8325C128.557 76.6812 128.231 76.6055 127.856 76.6055C127.486 76.6055 127.16 76.6812 126.878 76.8325C126.6 76.9839 126.367 77.1921 126.177 77.457C125.992 77.7172 125.853 78.0176 125.761 78.3582C125.668 78.694 125.622 79.0512 125.622 79.4296Z" fill="#2A2A2A"/>
<path d="M135.158 81.9842L137.187 75.6688H138.078L137.903 76.9248L135.837 83.3466H134.968L135.158 81.9842ZM133.792 75.6688L135.523 82.0551L135.647 83.3466H134.734L132.441 75.6688H133.792ZM140.02 82.0055L141.671 75.6688H143.014L140.721 83.3466H139.816L140.02 82.0055ZM138.275 75.6688L140.261 81.8777L140.488 83.3466H139.626L137.501 76.9106L137.326 75.6688H138.275Z" fill="#2A2A2A"/>
<path d="M147.68 83.4885C147.13 83.4885 146.631 83.3986 146.183 83.2189C145.74 83.0344 145.358 82.7766 145.037 82.4454C144.72 82.1143 144.477 81.7216 144.306 81.2675C144.136 80.8133 144.051 80.3166 144.051 79.7773V79.4793C144.051 78.8549 144.146 78.299 144.336 77.8118C144.525 77.3198 144.783 76.9035 145.11 76.5629C145.436 76.2223 145.806 75.9645 146.219 75.7894C146.633 75.6144 147.061 75.5269 147.504 75.5269C148.069 75.5269 148.556 75.6215 148.965 75.8107C149.378 76 149.717 76.2649 149.98 76.6055C150.242 76.9413 150.437 77.3387 150.564 77.7976C150.69 78.2517 150.754 78.7484 150.754 79.2877V79.8767H144.854V78.8052H149.403V78.7059C149.383 78.3653 149.31 78.0341 149.184 77.7124C149.062 77.3908 148.867 77.1258 148.6 76.9177C148.332 76.7095 147.967 76.6055 147.504 76.6055C147.198 76.6055 146.915 76.6693 146.657 76.7971C146.399 76.9201 146.178 77.1045 145.993 77.3505C145.808 77.5965 145.664 77.8969 145.562 78.2517C145.46 78.6065 145.409 79.0157 145.409 79.4793V79.7773C145.409 80.1416 145.46 80.4846 145.562 80.8063C145.669 81.1232 145.823 81.4023 146.022 81.6436C146.227 81.8848 146.472 82.0741 146.76 82.2112C147.052 82.3484 147.383 82.417 147.753 82.417C148.23 82.417 148.634 82.3224 148.965 82.1332C149.296 81.944 149.585 81.6909 149.834 81.3739L150.651 82.0055C150.481 82.2562 150.264 82.4951 150.002 82.7221C149.739 82.9492 149.415 83.1337 149.03 83.2756C148.651 83.4175 148.2 83.4885 147.68 83.4885Z" fill="#2A2A2A"/>
<path d="M153.681 76.8751V83.3466H152.331V75.6688H153.645L153.681 76.8751ZM156.149 75.6262L156.142 76.8467C156.03 76.8231 155.923 76.8089 155.821 76.8042C155.723 76.7947 155.612 76.79 155.485 76.79C155.173 76.79 154.898 76.8373 154.66 76.9319C154.421 77.0265 154.219 77.159 154.054 77.3293C153.888 77.4996 153.757 77.703 153.66 77.9395C153.567 78.1713 153.506 78.4268 153.477 78.7059L153.097 78.9187C153.097 78.4551 153.144 78.0199 153.236 77.6131C153.333 77.2063 153.482 76.8467 153.681 76.5345C153.881 76.2176 154.134 75.9716 154.441 75.7965C154.752 75.6168 155.122 75.5269 155.551 75.5269C155.648 75.5269 155.76 75.5387 155.887 75.5624C156.013 75.5813 156.101 75.6026 156.149 75.6262Z" fill="#2A2A2A"/>
<path d="M160.53 83.4885C159.98 83.4885 159.481 83.3986 159.033 83.2189C158.591 83.0344 158.208 82.7766 157.887 82.4454C157.571 82.1143 157.327 81.7216 157.157 81.2675C156.987 80.8133 156.901 80.3166 156.901 79.7773V79.4793C156.901 78.8549 156.996 78.299 157.186 77.8118C157.376 77.3198 157.634 76.9035 157.96 76.5629C158.286 76.2223 158.656 75.9645 159.07 75.7894C159.484 75.6144 159.912 75.5269 160.355 75.5269C160.92 75.5269 161.406 75.6215 161.815 75.8107C162.229 76 162.567 76.2649 162.83 76.6055C163.093 76.9413 163.288 77.3387 163.414 77.7976C163.541 78.2517 163.604 78.7484 163.604 79.2877V79.8767H157.705V78.8052H162.253V78.7059C162.234 78.3653 162.161 78.0341 162.034 77.7124C161.913 77.3908 161.718 77.1258 161.45 76.9177C161.183 76.7095 160.817 76.6055 160.355 76.6055C160.048 76.6055 159.766 76.6693 159.508 76.7971C159.25 76.9201 159.029 77.1045 158.844 77.3505C158.659 77.5965 158.515 77.8969 158.413 78.2517C158.311 78.6065 158.26 79.0157 158.26 79.4793V79.7773C158.26 80.1416 158.311 80.4846 158.413 80.8063C158.52 81.1232 158.673 81.4023 158.873 81.6436C159.077 81.8848 159.323 82.0741 159.61 82.2112C159.902 82.3484 160.233 82.417 160.603 82.417C161.08 82.417 161.484 82.3224 161.815 82.1332C162.146 81.944 162.436 81.6909 162.684 81.3739L163.502 82.0055C163.332 82.2562 163.115 82.4951 162.852 82.7221C162.589 82.9492 162.266 83.1337 161.881 83.2756C161.501 83.4175 161.051 83.4885 160.53 83.4885Z" fill="#2A2A2A"/>
<path d="M170.161 81.8564V72.4473H171.519V83.3466H170.278L170.161 81.8564ZM164.845 79.5929V79.4438C164.845 78.8572 164.918 78.325 165.065 77.8473C165.215 77.3647 165.427 76.9508 165.7 76.6055C165.977 76.2601 166.306 75.9952 166.685 75.8107C167.07 75.6215 167.498 75.5269 167.971 75.5269C168.467 75.5269 168.9 75.612 169.27 75.7823C169.645 75.9479 169.961 76.1915 170.219 76.5132C170.482 76.8302 170.689 77.2134 170.84 77.6628C170.991 78.1122 171.096 78.6207 171.154 79.1884V79.8412C171.1 80.4041 170.996 80.9103 170.84 81.3597C170.689 81.8091 170.482 82.1923 170.219 82.5093C169.961 82.8262 169.645 83.0698 169.27 83.2401C168.895 83.4057 168.457 83.4885 167.956 83.4885C167.493 83.4885 167.07 83.3915 166.685 83.1976C166.306 83.0036 165.977 82.7316 165.7 82.3815C165.427 82.0315 165.215 81.6199 165.065 81.1469C164.918 80.6691 164.845 80.1511 164.845 79.5929ZM166.204 79.4438V79.5929C166.204 79.976 166.242 80.3356 166.32 80.6714C166.403 81.0073 166.53 81.303 166.7 81.5584C166.87 81.8139 167.087 82.0149 167.35 82.1616C167.613 82.3035 167.927 82.3744 168.292 82.3744C168.74 82.3744 169.107 82.2822 169.394 82.0977C169.686 81.9132 169.92 81.6696 170.095 81.3668C170.27 81.0641 170.407 80.7353 170.504 80.3805V78.6704C170.446 78.4102 170.361 78.1595 170.249 77.9182C170.141 77.6722 170 77.4546 169.825 77.2654C169.655 77.0714 169.443 76.9177 169.19 76.8042C168.942 76.6906 168.647 76.6339 168.306 76.6339C167.936 76.6339 167.618 76.7095 167.35 76.8609C167.087 77.0076 166.87 77.211 166.7 77.4712C166.53 77.7266 166.403 78.0247 166.32 78.3653C166.242 78.7011 166.204 79.0607 166.204 79.4438Z" fill="#2A2A2A"/>
<path d="M177.324 72.4473H178.682V81.8564L178.565 83.3466H177.324V72.4473ZM184.019 79.4438V79.5929C184.019 80.1511 183.951 80.6691 183.815 81.1469C183.678 81.6199 183.479 82.0315 183.216 82.3815C182.953 82.7316 182.632 83.0036 182.252 83.1976C181.873 83.3915 181.437 83.4885 180.945 83.4885C180.444 83.4885 180.003 83.4057 179.624 83.2401C179.249 83.0698 178.932 82.8262 178.675 82.5093C178.417 82.1923 178.21 81.8091 178.054 81.3597C177.903 80.9103 177.798 80.4041 177.74 79.8412V79.1884C177.798 78.6207 177.903 78.1122 178.054 77.6628C178.21 77.2134 178.417 76.8302 178.675 76.5132C178.932 76.1915 179.249 75.9479 179.624 75.7823C179.999 75.612 180.434 75.5269 180.931 75.5269C181.427 75.5269 181.868 75.6215 182.252 75.8107C182.637 75.9952 182.958 76.2601 183.216 76.6055C183.479 76.9508 183.678 77.3647 183.815 77.8473C183.951 78.325 184.019 78.8572 184.019 79.4438ZM182.661 79.5929V79.4438C182.661 79.0607 182.625 78.7011 182.552 78.3653C182.479 78.0247 182.362 77.7266 182.201 77.4712C182.04 77.211 181.829 77.0076 181.566 76.8609C181.303 76.7095 180.979 76.6339 180.595 76.6339C180.254 76.6339 179.957 76.6906 179.704 76.8042C179.456 76.9177 179.244 77.0714 179.069 77.2654C178.894 77.4546 178.75 77.6722 178.638 77.9182C178.531 78.1595 178.451 78.4102 178.397 78.6704V80.3805C178.475 80.7116 178.601 81.031 178.777 81.3384C178.957 81.6412 179.195 81.8896 179.492 82.0835C179.794 82.2775 180.166 82.3744 180.609 82.3744C180.974 82.3744 181.286 82.3035 181.544 82.1616C181.807 82.0149 182.019 81.8139 182.179 81.5584C182.345 81.303 182.466 81.0073 182.544 80.6714C182.622 80.3356 182.661 79.976 182.661 79.5929Z" fill="#2A2A2A"/>
<path d="M187.86 82.5518L190.058 75.6688H191.503L188.334 84.5316C188.261 84.7208 188.164 84.9242 188.042 85.1419C187.925 85.3642 187.775 85.5747 187.59 85.7734C187.405 85.9721 187.181 86.1329 186.918 86.2559C186.66 86.3836 186.351 86.4475 185.991 86.4475C185.884 86.4475 185.747 86.4333 185.582 86.4049C185.416 86.3765 185.299 86.3529 185.231 86.334L185.224 85.2696C185.263 85.2743 185.324 85.279 185.406 85.2838C185.494 85.2932 185.555 85.298 185.589 85.298C185.896 85.298 186.156 85.2578 186.37 85.1773C186.584 85.1016 186.765 84.9716 186.911 84.7871C187.061 84.6073 187.19 84.3589 187.298 84.042L187.86 82.5518ZM186.246 75.6688L188.298 81.6294L188.648 83.0131L187.677 83.4956L184.771 75.6688H186.246Z" fill="#2A2A2A"/>
<path d="M226.015 83.5234C226.283 83.7938 226.417 84.1182 226.417 84.4968C226.417 84.8618 226.283 85.1795 226.015 85.4499C225.747 85.6932 225.432 85.8217 225.07 85.8352C224.709 85.8622 224.387 85.7338 224.106 85.4499L221.072 82.408V84.4765C221.072 84.828 220.938 85.1457 220.67 85.4296C220.402 85.7 220.087 85.8352 219.725 85.8352C219.377 85.8352 219.062 85.7068 218.781 85.4499C218.499 85.1795 218.359 84.855 218.359 84.4765V74.2355C218.359 73.884 218.493 73.5731 218.761 73.3027C219.029 73.0188 219.35 72.8768 219.725 72.8768C220.1 72.8768 220.415 73.012 220.67 73.2824C220.938 73.5393 221.072 73.857 221.072 74.2355V79.3256L224.106 76.2635C224.374 75.9931 224.689 75.8646 225.05 75.8782C225.412 75.8782 225.733 76.0066 226.015 76.2635C226.283 76.5338 226.417 76.8583 226.417 77.2369C226.417 77.6019 226.283 77.9196 226.015 78.19L223.362 80.8668L226.015 83.5234Z" fill="#D22B6C"/>
<path d="M231.44 76.0201C232.083 76.0201 232.699 76.1553 233.288 76.4257C233.878 76.6961 234.393 77.0611 234.836 77.5208C235.291 77.9669 235.653 78.4874 235.921 79.0823C236.189 79.6636 236.323 80.2787 236.323 80.9276C236.323 81.2792 236.189 81.5901 235.921 81.8605C235.666 82.1309 235.345 82.2593 234.956 82.2458H229.611C230.053 82.8812 230.663 83.1989 231.44 83.1989C231.654 83.1989 231.835 83.1786 231.982 83.1381C232.13 83.0975 232.257 83.0502 232.364 82.9961C232.485 82.942 232.598 82.8947 232.706 82.8542C232.826 82.8136 232.96 82.7933 233.107 82.7933C233.389 82.8068 233.63 82.888 233.831 83.0367C234.045 83.1854 234.199 83.3747 234.293 83.6045C234.4 83.8208 234.434 84.0574 234.393 84.3143C234.367 84.5711 234.253 84.8077 234.052 85.024C233.69 85.3214 233.288 85.531 232.846 85.6527C232.404 85.7608 231.935 85.8217 231.44 85.8352C230.797 85.8622 230.18 85.7473 229.591 85.4904C229.001 85.2201 228.479 84.8618 228.024 84.4157C227.581 83.956 227.226 83.422 226.959 82.8136C226.704 82.2052 226.577 81.5766 226.577 80.9276C226.577 80.2922 226.704 79.6771 226.959 79.0823C227.226 78.4874 227.581 77.9669 228.024 77.5208C228.466 77.0611 228.981 76.6961 229.571 76.4257C230.16 76.1553 230.783 76.0201 231.44 76.0201ZM233.268 79.5892C233.04 79.3053 232.773 79.0822 232.464 78.92C232.156 78.7443 231.815 78.6564 231.44 78.6564C231.051 78.6564 230.703 78.7443 230.395 78.92C230.1 79.0822 229.839 79.3053 229.611 79.5892H233.268Z" fill="#D22B6C"/>
<path d="M238.542 72.9377C238.903 72.9377 239.205 73.0661 239.446 73.323C239.7 73.5799 239.841 73.8976 239.868 74.2761V82.2863C239.868 82.5567 239.955 82.7866 240.129 82.9758C240.303 83.1651 240.524 83.2597 240.792 83.2597C241.141 83.2597 241.442 83.3814 241.697 83.6248C241.964 83.8681 242.105 84.1723 242.118 84.5373C242.118 84.8618 242.005 85.1525 241.777 85.4093C241.563 85.6527 241.281 85.8014 240.933 85.8555H240.652C240.183 85.8555 239.741 85.7608 239.325 85.5716C238.91 85.3688 238.542 85.1051 238.22 84.7807C237.912 84.4562 237.664 84.0777 237.477 83.645C237.303 83.2124 237.215 82.7595 237.215 82.2863V74.195C237.256 73.857 237.396 73.5663 237.637 73.323C237.879 73.0796 238.18 72.9512 238.542 72.9377Z" fill="#D22B6C"/>
<path d="M246.746 76.2026C247.402 76.2026 248.025 76.3311 248.615 76.5879C249.204 76.8448 249.72 77.1963 250.162 77.6424C250.604 78.0886 250.952 78.6091 251.207 79.2039C251.475 79.7988 251.609 80.4409 251.609 81.1304C251.609 81.8064 251.481 82.4418 251.227 83.0367C250.972 83.618 250.624 84.1317 250.182 84.5779C249.753 85.024 249.244 85.3755 248.655 85.6324C248.065 85.8893 247.429 86.0177 246.746 86.0177C246.076 86.0177 245.446 85.896 244.857 85.6527C244.268 85.4093 243.752 85.0713 243.31 84.6387C242.868 84.1926 242.519 83.6721 242.265 83.0772C242.01 82.4824 241.883 81.8334 241.883 81.1304C241.883 80.4545 242.004 79.8258 242.245 79.2445C242.499 78.6496 242.841 78.1359 243.27 77.7033C243.712 77.2571 244.227 76.9056 244.817 76.6488C245.42 76.3784 246.063 76.2297 246.746 76.2026ZM246.746 78.8592C246.438 78.8592 246.15 78.92 245.882 79.0417C245.614 79.1498 245.373 79.3053 245.158 79.5081C244.957 79.7109 244.797 79.9543 244.676 80.2382C244.556 80.5085 244.495 80.806 244.495 81.1304C244.495 81.4414 244.556 81.7388 244.676 82.0227C244.797 82.2931 244.957 82.5365 245.158 82.7528C245.373 82.9556 245.614 83.1178 245.882 83.2395C246.15 83.3611 246.438 83.422 246.746 83.422C247.054 83.422 247.342 83.3611 247.61 83.2395C247.891 83.1178 248.132 82.9556 248.333 82.7528C248.534 82.5365 248.695 82.2931 248.816 82.0227C248.936 81.7388 248.996 81.4414 248.996 81.1304C248.97 80.5085 248.749 79.9813 248.333 79.5487C247.918 79.116 247.389 78.8862 246.746 78.8592Z" fill="#D22B6C"/>
<path d="M253.907 72.9377C254.269 72.9377 254.57 73.0661 254.811 73.323C255.066 73.5799 255.206 73.8976 255.233 74.2761V82.2863C255.233 82.5567 255.32 82.7866 255.494 82.9758C255.668 83.1651 255.889 83.2597 256.157 83.2597C256.506 83.2597 256.807 83.3814 257.062 83.6248C257.33 83.8681 257.47 84.1723 257.484 84.5373C257.484 84.8618 257.37 85.1525 257.142 85.4093C256.928 85.6527 256.646 85.8014 256.298 85.8555H256.017C255.548 85.8555 255.106 85.7608 254.69 85.5716C254.275 85.3688 253.907 85.1051 253.585 84.7807C253.277 84.4562 253.029 84.0777 252.842 83.645C252.668 83.2124 252.581 82.7595 252.581 82.2863V74.195C252.621 73.857 252.761 73.5663 253.003 73.323C253.244 73.0796 253.545 72.9512 253.907 72.9377Z" fill="#D22B6C"/>
<path d="M263.204 76.0404C263.807 76.108 264.369 76.2837 264.892 76.5676C265.428 76.8516 265.883 77.2166 266.258 77.6627C266.647 78.0953 266.948 78.5956 267.162 79.1634C267.39 79.7177 267.504 80.3058 267.504 80.9276V84.517C267.504 84.8821 267.37 85.193 267.102 85.4499C266.834 85.7068 266.533 85.8352 266.198 85.8352C265.729 85.8352 265.354 85.6189 265.073 85.1863C265.006 85.2133 264.945 85.2471 264.892 85.2877C264.838 85.3147 264.785 85.3417 264.731 85.3688C264.41 85.5175 264.081 85.6324 263.746 85.7135C263.398 85.7946 263.03 85.8352 262.641 85.8352C261.637 85.8352 260.739 85.5648 259.949 85.024C259.158 84.4697 258.569 83.76 258.18 82.8947C258.046 82.5838 257.939 82.2661 257.859 81.9416C257.792 81.6171 257.758 81.2792 257.758 80.9276C257.758 80.5761 257.792 80.2382 257.859 79.9137C257.939 79.5892 258.046 79.2715 258.18 78.9606C258.569 78.0818 259.158 77.372 259.949 76.8313C260.739 76.2905 261.637 76.0201 262.641 76.0201C262.748 76.0201 262.842 76.0201 262.923 76.0201C263.016 76.0201 263.11 76.0269 263.204 76.0404ZM262.621 83.1989C262.929 83.1989 263.217 83.1448 263.485 83.0367C263.767 82.915 264.008 82.7528 264.209 82.55C264.41 82.3472 264.57 82.1106 264.691 81.8402C264.811 81.5563 264.872 81.2521 264.872 80.9276C264.872 80.6302 264.811 80.3463 264.691 80.0759C264.57 79.792 264.403 79.5487 264.189 79.3459C263.988 79.1296 263.746 78.9606 263.465 78.8389C263.197 78.7172 262.916 78.6564 262.621 78.6564C262.326 78.6564 262.045 78.7172 261.777 78.8389C261.509 78.9606 261.268 79.1296 261.054 79.3459C260.853 79.5487 260.692 79.792 260.572 80.0759C260.451 80.3463 260.391 80.6302 260.391 80.9276C260.391 81.2386 260.451 81.536 260.572 81.8199C260.705 82.0903 260.873 82.3269 261.074 82.5297C261.288 82.7325 261.529 82.8947 261.797 83.0164C262.065 83.1381 262.34 83.1989 262.621 83.1989Z" fill="#D22B6C"/>
<path d="M204.899 85.6957C205.457 86.0878 205.94 86.7784 205.512 87.3118C204.391 88.7099 200.281 88.7075 199.828 87.3736C199.371 86.0263 199.474 83.4338 199.665 82.1573C199.72 81.7083 200.25 81.7389 200.555 82.0704C201.432 83.0232 202.806 84.2255 204.899 85.6957Z" fill="#D22B6C"/>
<path d="M204.899 73.1187C205.457 72.7267 205.94 72.0361 205.512 71.5026C204.391 70.1046 200.281 70.1069 199.828 71.4409C199.371 72.7882 199.474 75.3807 199.665 76.6572C199.72 77.1061 200.25 77.0756 200.555 76.7441C201.432 75.7913 202.806 74.5889 204.899 73.1187Z" fill="#D22B6C"/>
<path d="M200.355 79.6751H200.353V79.1676C200.35 78.4668 201.297 76.8319 205.202 74.0979C210.937 70.0837 212.186 69.6223 213.19 71.5371C213.647 72.4094 213.008 73.1954 212.176 74.2181C211.182 75.4404 209.913 77.0007 209.913 79.4501C209.915 81.8963 211.183 83.4552 212.176 84.6766C213.008 85.6992 213.647 86.4853 213.19 87.3575C212.186 89.2723 210.937 88.8109 205.202 84.7967C201.197 81.9929 200.303 80.345 200.355 79.6751Z" fill="#D22B6C"/>
</svg>
