<svg width="335" height="96" viewBox="0 0 335 96" fill="none" xmlns="http://www.w3.org/2000/svg">
<circle cx="48" cy="47.9999" r="48" fill="#0396D4"/>
<path d="M42.6721 23.9582C45.9338 21.9274 50.0662 21.9274 53.3279 23.9582L69.8193 34.2264C72.0711 35.6285 73.44 38.0933 73.44 40.746L73.44 67.6808C73.44 70.862 70.8612 73.4408 67.68 73.4408H66.72C65.6596 73.4408 64.8 72.5812 64.8 71.5208V53.3642C64.8 50.7085 63.428 48.2413 61.1721 46.8401L51.5184 40.8442C49.3645 39.5064 46.6355 39.5064 44.4816 40.8442L34.8279 46.8401C32.572 48.2413 31.2 50.7085 31.2 53.3641V71.5208C31.2 72.5812 30.3404 73.4408 29.28 73.4408H28.32C25.1388 73.4408 22.56 70.862 22.56 67.6808V40.746C22.56 38.0933 23.9289 35.6285 26.1807 34.2264L42.6721 23.9582Z" fill="white"/>
<path d="M35.04 61.4408C35.04 60.1153 36.1145 59.0408 37.44 59.0408H47.04C48.3655 59.0408 49.44 60.1153 49.44 61.4408V71.0408C49.44 72.3663 48.3655 73.4408 47.04 73.4408H37.44C36.1145 73.4408 35.04 72.3663 35.04 71.0408V61.4408Z" fill="white"/>
<path d="M51.84 65.4408C51.84 64.5571 52.5205 63.8408 53.36 63.8408H59.44C60.2795 63.8408 60.96 64.5571 60.96 65.4408V71.8408C60.96 72.7245 60.2795 73.4408 59.44 73.4408H53.36C52.5205 73.4408 51.84 72.7245 51.84 71.8408V65.4408Z" fill="white"/>
<path d="M133.399 18.5252C135.795 18.5252 138.048 18.9815 140.157 19.8943C142.266 20.8071 144.111 22.0561 145.693 23.6415C147.275 25.2268 148.497 27.0764 149.36 29.1901C150.27 31.3039 150.726 33.5618 150.726 35.9638C150.726 39.2306 150.031 42.113 148.641 44.6111C150.031 46.4847 150.726 48.8627 150.726 51.7451C150.726 53.4266 150.414 55.0119 149.791 56.5011C149.168 58.0384 148.305 59.3836 147.203 60.5365C146.148 61.6895 144.878 62.6023 143.392 63.2748C141.906 63.9955 140.301 64.4038 138.575 64.4999H120.314C119.115 64.4999 118.085 64.0195 117.222 63.0587C116.407 62.1459 116 61.065 116 59.8159C116 58.5669 116.431 57.462 117.294 56.5011C118.205 55.5884 119.307 55.108 120.601 55.0599H138.072C139.031 55.0599 139.821 54.7236 140.444 54.0511C141.068 53.4266 141.427 52.6339 141.523 51.6731V51.601C140.564 52.1295 139.462 52.5618 138.216 52.8981C137.017 53.2344 135.412 53.4025 133.399 53.4025C130.858 53.4025 128.51 52.9702 126.353 52.1054C124.244 51.2407 122.423 50.0397 120.889 48.5024C119.355 46.9651 118.157 45.1396 117.294 43.0258C116.431 40.864 116 38.51 116 35.9638C116 33.6099 116.479 31.376 117.438 29.2622C118.397 27.1484 119.667 25.2989 121.248 23.7135C122.878 22.1282 124.723 20.8791 126.784 19.9664C128.893 19.0056 131.098 18.5252 133.399 18.5252ZM133.399 27.8931C132.344 27.8931 131.338 28.1333 130.379 28.6137C129.421 29.046 128.558 29.6465 127.791 30.4152C127.072 31.1358 126.473 31.9765 125.993 32.9373C125.562 33.8981 125.346 34.907 125.346 35.9638C125.346 37.0207 125.538 38.0536 125.922 39.0625C126.353 40.0233 126.928 40.888 127.647 41.6566C128.366 42.3773 129.205 42.9778 130.163 43.4582C131.17 43.8905 132.248 44.1067 133.399 44.1067C134.549 44.1067 135.627 43.8905 136.634 43.4582C137.641 43.0258 138.503 42.4253 139.222 41.6566C139.941 40.888 140.492 40.0233 140.876 39.0625C141.307 38.1016 141.523 37.0688 141.523 35.9638C141.523 34.8589 141.283 33.826 140.804 32.8652C140.373 31.8564 139.773 30.9917 139.007 30.2711C138.288 29.5504 137.425 28.974 136.418 28.5416C135.46 28.1092 134.453 27.8931 133.399 27.8931Z" fill="#2A2A2A"/>
<path d="M157.642 18.4531C158.888 18.4531 159.991 18.9335 160.949 19.8943C161.908 20.8071 162.387 21.936 162.387 23.2812V35.9638C162.387 37.0688 162.603 38.1257 163.034 39.1345C163.466 40.0953 164.041 40.936 164.76 41.6566C165.479 42.3773 166.318 42.9537 167.276 43.3861C168.283 43.8185 169.337 44.0346 170.44 44.0346C171.494 44.0346 172.501 43.8425 173.459 43.4582C174.418 43.0738 175.257 42.5454 175.975 41.8728C176.742 41.2003 177.342 40.3836 177.773 39.4228C178.204 38.462 178.42 37.4291 178.42 36.3242V23.2091C178.42 22.2483 178.66 21.4316 179.139 20.759C179.235 20.6149 179.331 20.4708 179.426 20.3267C179.57 20.1826 179.714 20.0384 179.858 19.8943C180.721 18.9335 181.799 18.4531 183.093 18.4531C184.387 18.4531 185.514 18.9335 186.472 19.8943C187.383 20.8071 187.862 21.84 187.91 22.9929V35.9638C187.91 38.3659 187.455 40.6238 186.544 42.7376C185.633 44.8513 184.387 46.7009 182.806 48.2862C181.224 49.8716 179.379 51.1206 177.27 52.0334C175.161 52.9462 172.884 53.4025 170.44 53.4025C168.139 53.4986 165.934 53.1143 163.825 52.2496C161.716 51.3368 159.847 50.1118 158.217 48.5745C156.636 46.9891 155.365 45.1636 154.407 43.0979C153.448 40.9841 152.969 38.7742 152.969 36.4683V23.2091C152.969 21.9601 153.4 20.8791 154.263 19.9664C155.174 19.0056 156.3 18.5011 157.642 18.4531Z" fill="#2A2A2A"/>
<path d="M219.263 7.49988C220.509 7.49988 221.587 7.95626 222.498 8.86903C223.457 9.73376 223.936 10.8627 223.936 12.2559V35.9638C223.936 38.3178 223.457 40.5517 222.498 42.6655C221.587 44.7793 220.317 46.6288 218.688 48.2142C217.106 49.7995 215.261 51.0726 213.152 52.0334C211.043 52.9462 208.838 53.4025 206.537 53.4025C204.237 53.4025 202.032 52.9462 199.923 52.0334C197.814 51.1206 195.945 49.8716 194.315 48.2862C192.733 46.7009 191.463 44.8513 190.505 42.7376C189.546 40.6238 189.067 38.3659 189.067 35.9638C189.067 33.6099 189.522 31.376 190.433 29.2622C191.391 27.1484 192.661 25.2989 194.243 23.7135C195.873 22.1282 197.742 20.8791 199.851 19.9664C201.96 19.0056 204.189 18.5252 206.537 18.5252C209.413 18.5252 212.073 19.1737 214.518 20.4708V12.1838C214.518 11.5593 214.637 10.9588 214.877 10.3823C215.165 9.80582 215.524 9.30139 215.956 8.86903C216.387 8.43667 216.89 8.10038 217.465 7.86018C218.041 7.61998 218.64 7.49988 219.263 7.49988ZM206.537 27.8931C205.435 27.8931 204.38 28.1092 203.374 28.5416C202.415 28.974 201.553 29.5745 200.786 30.3431C200.067 31.0637 199.492 31.9284 199.06 32.9373C198.629 33.8981 198.413 34.907 198.413 35.9638C198.413 37.0688 198.629 38.1257 199.06 39.1345C199.492 40.0953 200.067 40.936 200.786 41.6566C201.553 42.3773 202.415 42.9537 203.374 43.3861C204.38 43.8185 205.435 44.0346 206.537 44.0346C207.592 44.0346 208.598 43.8185 209.557 43.3861C210.515 42.9537 211.354 42.3773 212.073 41.6566C212.84 40.888 213.439 40.0233 213.871 39.0625C214.302 38.1016 214.518 37.0688 214.518 35.9638C214.518 34.8109 214.302 33.754 213.871 32.7932C213.439 31.7843 212.84 30.9196 212.073 30.199C211.354 29.4784 210.515 28.9259 209.557 28.5416C208.598 28.1092 207.592 27.8931 206.537 27.8931Z" fill="#2A2A2A"/>
<path d="M245.466 18.5972C247.623 18.8374 249.636 19.462 251.505 20.4708C253.422 21.4797 255.052 22.7767 256.394 24.3621C257.784 25.8994 258.862 27.6769 259.629 29.6946C260.444 31.6642 260.852 33.754 260.852 35.9638V48.7186C260.852 50.0157 260.372 51.1206 259.414 52.0334C258.455 52.9462 257.377 53.4025 256.178 53.4025C254.501 53.4025 253.159 52.6339 252.152 51.0966C251.913 51.1927 251.697 51.3128 251.505 51.4569C251.313 51.553 251.122 51.6491 250.93 51.7451C249.78 52.2736 248.605 52.6819 247.407 52.9702C246.161 53.2584 244.843 53.4025 243.453 53.4025C239.858 53.4025 236.647 52.4417 233.819 50.5201C230.991 48.5504 228.882 46.0283 227.492 42.9537C227.013 41.8488 226.629 40.7199 226.342 39.5669C226.102 38.4139 225.982 37.2129 225.982 35.9638C225.982 34.7148 226.102 33.5138 226.342 32.3608C226.629 31.2078 227.013 30.0789 227.492 28.974C228.882 25.8513 230.991 23.3292 233.819 21.4076C236.647 19.486 239.858 18.5252 243.453 18.5252C243.836 18.5252 244.172 18.5252 244.459 18.5252C244.795 18.5252 245.13 18.5492 245.466 18.5972ZM243.381 44.0346C244.483 44.0346 245.514 43.8425 246.472 43.4582C247.479 43.0258 248.342 42.4493 249.061 41.7287C249.78 41.0081 250.355 40.1674 250.786 39.2066C251.218 38.1977 251.433 37.1168 251.433 35.9638C251.433 34.907 251.218 33.8981 250.786 32.9373C250.355 31.9284 249.756 31.0637 248.989 30.3431C248.27 29.5745 247.407 28.974 246.401 28.5416C245.442 28.1092 244.435 27.8931 243.381 27.8931C242.326 27.8931 241.32 28.1092 240.361 28.5416C239.403 28.974 238.54 29.5745 237.773 30.3431C237.054 31.0637 236.479 31.9284 236.048 32.9373C235.616 33.8981 235.401 34.907 235.401 35.9638C235.401 37.0688 235.616 38.1257 236.048 39.1345C236.527 40.0953 237.126 40.936 237.845 41.6566C238.612 42.3773 239.475 42.9537 240.433 43.3861C241.392 43.8185 242.374 44.0346 243.381 44.0346Z" fill="#2A2A2A"/>
<path d="M280.639 18.309C282.94 18.309 285.145 18.7413 287.253 19.6061C289.362 20.4228 291.208 21.5998 292.789 23.137C294.371 24.6263 295.641 26.4038 296.6 28.4695C297.559 30.5353 298.038 32.7692 298.038 35.1712V48.5024C298.038 49.7515 297.582 50.8324 296.672 51.7451C295.809 52.6579 294.731 53.1383 293.437 53.1864C292.142 53.1864 291.016 52.778 290.057 51.9613C289.147 51.0966 288.691 50.0157 288.691 48.7186V35.7477C288.691 34.6427 288.476 33.6099 288.044 32.6491C287.661 31.6402 287.086 30.7755 286.319 30.0549C285.6 29.3343 284.737 28.7578 283.731 28.3254C282.772 27.8931 281.718 27.6769 280.567 27.6769C279.513 27.6769 278.506 27.8931 277.548 28.3254C276.589 28.7097 275.75 29.2382 275.031 29.9108C274.312 30.5833 273.737 31.4 273.306 32.3608C272.874 33.3216 272.659 34.3305 272.659 35.3874V48.5024C272.659 49.7515 272.179 50.8564 271.221 51.8172C270.262 52.73 269.16 53.1864 267.914 53.1864C266.667 53.1864 265.565 52.754 264.606 51.8893C263.648 51.0245 263.168 49.9676 263.168 48.7186V35.7477C263.216 33.3456 263.672 31.0877 264.535 28.974C265.445 26.8602 266.667 25.0106 268.201 23.4253C269.783 21.84 271.628 20.5909 273.737 19.6781C275.846 18.7654 278.147 18.309 280.639 18.309Z" fill="#2A2A2A"/>
<path d="M317.673 18.5252C320.07 18.5252 322.322 18.9815 324.431 19.8943C326.54 20.8071 328.386 22.0561 329.967 23.6415C331.549 25.2268 332.771 27.0764 333.634 29.1901C334.545 31.3039 335 33.5618 335 35.9638C335 39.2306 334.305 42.113 332.915 44.6111C334.305 46.4847 335 48.8627 335 51.7451C335 53.4266 334.688 55.0119 334.065 56.5011C333.442 58.0384 332.58 59.3836 331.477 60.5365C330.423 61.6895 329.152 62.6023 327.667 63.2748C326.181 63.9955 324.575 64.4038 322.85 64.4999H304.588C303.39 64.4999 302.359 64.0195 301.497 63.0587C300.682 62.1459 300.274 61.065 300.274 59.8159C300.274 58.5669 300.706 57.462 301.569 56.5011C302.479 55.5884 303.582 55.108 304.876 55.0599H322.346C323.305 55.0599 324.096 54.7236 324.719 54.0511C325.342 53.4266 325.702 52.6339 325.797 51.6731V51.601C324.839 52.1295 323.736 52.5618 322.49 52.8981C321.292 53.2344 319.686 53.4025 317.673 53.4025C315.133 53.4025 312.784 52.9702 310.627 52.1054C308.518 51.2407 306.697 50.0397 305.163 48.5024C303.63 46.9651 302.431 45.1396 301.569 43.0258C300.706 40.864 300.274 38.51 300.274 35.9638C300.274 33.6099 300.754 31.376 301.712 29.2622C302.671 27.1484 303.941 25.2989 305.523 23.7135C307.152 22.1282 308.998 20.8791 311.059 19.9664C313.168 19.0056 315.373 18.5252 317.673 18.5252ZM317.673 27.8931C316.619 27.8931 315.612 28.1333 314.654 28.6137C313.695 29.046 312.832 29.6465 312.065 30.4152C311.346 31.1358 310.747 31.9765 310.268 32.9373C309.837 33.8981 309.621 34.907 309.621 35.9638C309.621 37.0207 309.813 38.0536 310.196 39.0625C310.627 40.0233 311.203 40.888 311.922 41.6566C312.64 42.3773 313.479 42.9778 314.438 43.4582C315.444 43.8905 316.523 44.1067 317.673 44.1067C318.823 44.1067 319.902 43.8905 320.908 43.4582C321.915 43.0258 322.778 42.4253 323.497 41.6566C324.216 40.888 324.767 40.0233 325.15 39.0625C325.582 38.1016 325.797 37.0688 325.797 35.9638C325.797 34.8589 325.558 33.826 325.078 32.8652C324.647 31.8564 324.048 30.9917 323.281 30.2711C322.562 29.5504 321.699 28.974 320.693 28.5416C319.734 28.1092 318.728 27.8931 317.673 27.8931Z" fill="#2A2A2A"/>
<path d="M186.921 79.3473H184.081V78.2333H186.921C187.471 78.2333 187.916 78.1481 188.257 77.9778C188.598 77.8075 188.846 77.571 189.002 77.2683C189.162 76.9655 189.243 76.6202 189.243 76.2323C189.243 75.8775 189.162 75.544 189.002 75.2318C188.846 74.9195 188.598 74.6688 188.257 74.4796C187.916 74.2857 187.471 74.1887 186.921 74.1887H184.409V83.399H183V73.0675H186.921C187.724 73.0675 188.403 73.2024 188.958 73.472C189.513 73.7416 189.934 74.1154 190.221 74.5931C190.508 75.0662 190.652 75.6078 190.652 76.2181C190.652 76.8803 190.508 77.4456 190.221 77.914C189.934 78.3823 189.513 78.7394 188.958 78.9854C188.403 79.2267 187.724 79.3473 186.921 79.3473Z" fill="#2A2A2A"/>
<path d="M191.769 79.6453V79.4821C191.769 78.9287 191.852 78.4154 192.017 77.9424C192.183 77.4646 192.421 77.0506 192.733 76.7006C193.044 76.3458 193.421 76.0714 193.864 75.8775C194.307 75.6788 194.804 75.5795 195.354 75.5795C195.909 75.5795 196.408 75.6788 196.851 75.8775C197.299 76.0714 197.678 76.3458 197.99 76.7006C198.306 77.0506 198.547 77.4646 198.713 77.9424C198.878 78.4154 198.961 78.9287 198.961 79.4821V79.6453C198.961 80.1988 198.878 80.7121 198.713 81.1851C198.547 81.6582 198.306 82.0721 197.99 82.4269C197.678 82.777 197.301 83.0513 196.858 83.25C196.42 83.444 195.923 83.5409 195.369 83.5409C194.814 83.5409 194.315 83.444 193.872 83.25C193.429 83.0513 193.049 82.777 192.733 82.4269C192.421 82.0721 192.183 81.6582 192.017 81.1851C191.852 80.7121 191.769 80.1988 191.769 79.6453ZM193.12 79.4821V79.6453C193.12 80.0285 193.166 80.3904 193.258 80.731C193.351 81.0669 193.49 81.3649 193.675 81.6251C193.864 81.8852 194.101 82.091 194.383 82.2424C194.665 82.389 194.994 82.4624 195.369 82.4624C195.738 82.4624 196.062 82.389 196.34 82.2424C196.622 82.091 196.856 81.8852 197.041 81.6251C197.226 81.3649 197.364 81.0669 197.457 80.731C197.554 80.3904 197.603 80.0285 197.603 79.6453V79.4821C197.603 79.1037 197.554 78.7465 197.457 78.4107C197.364 78.0701 197.223 77.7697 197.033 77.5095C196.848 77.2446 196.615 77.0365 196.332 76.8851C196.055 76.7337 195.729 76.658 195.354 76.658C194.984 76.658 194.658 76.7337 194.376 76.8851C194.098 77.0365 193.864 77.2446 193.675 77.5095C193.49 77.7697 193.351 78.0701 193.258 78.4107C193.166 78.7465 193.12 79.1037 193.12 79.4821Z" fill="#2A2A2A"/>
<path d="M202.655 82.0366L204.685 75.7214H205.576L205.401 76.9773L203.334 83.399H202.465L202.655 82.0366ZM201.29 75.7214L203.02 82.1076L203.144 83.399H202.232L199.939 75.7214H201.29ZM207.518 82.0579L209.168 75.7214H210.512L208.219 83.399H207.314L207.518 82.0579ZM205.773 75.7214L207.759 81.9302L207.985 83.399H207.124L204.999 76.9631L204.824 75.7214H205.773Z" fill="#2A2A2A"/>
<path d="M215.177 83.5409C214.627 83.5409 214.128 83.4511 213.68 83.2713C213.237 83.0868 212.855 82.829 212.534 82.4979C212.218 82.1667 211.974 81.7741 211.804 81.3199C211.634 80.8658 211.548 80.3691 211.548 79.8298V79.5318C211.548 78.9074 211.643 78.3515 211.833 77.8643C212.023 77.3723 212.281 76.956 212.607 76.6154C212.933 76.2748 213.303 76.017 213.717 75.842C214.131 75.667 214.559 75.5795 215.002 75.5795C215.567 75.5795 216.053 75.6741 216.462 75.8633C216.876 76.0525 217.214 76.3174 217.477 76.658C217.74 76.9939 217.935 77.3912 218.061 77.8501C218.188 78.3042 218.251 78.8009 218.251 79.3402V79.9292H212.352V78.8577H216.9V78.7584C216.881 78.4178 216.808 78.0866 216.681 77.765C216.56 77.4433 216.365 77.1784 216.097 76.9702C215.829 76.7621 215.464 76.658 215.002 76.658C214.695 76.658 214.413 76.7219 214.155 76.8496C213.897 76.9726 213.676 77.1571 213.491 77.4031C213.306 77.6491 213.162 77.9494 213.06 78.3042C212.958 78.659 212.906 79.0682 212.906 79.5318V79.8298C212.906 80.1941 212.958 80.537 213.06 80.8587C213.167 81.1757 213.32 81.4548 213.52 81.696C213.724 81.9373 213.97 82.1265 214.257 82.2637C214.549 82.4009 214.88 82.4695 215.25 82.4695C215.727 82.4695 216.131 82.3749 216.462 82.1856C216.793 81.9964 217.083 81.7433 217.331 81.4264L218.149 82.0579C217.978 82.3086 217.762 82.5475 217.499 82.7746C217.236 83.0017 216.912 83.1861 216.528 83.3281C216.148 83.47 215.698 83.5409 215.177 83.5409Z" fill="#2A2A2A"/>
<path d="M221.179 76.9277V83.399H219.828V75.7214H221.142L221.179 76.9277ZM223.647 75.6788L223.639 76.8993C223.527 76.8756 223.42 76.8614 223.318 76.8567C223.221 76.8472 223.109 76.8425 222.982 76.8425C222.671 76.8425 222.396 76.8898 222.157 76.9844C221.919 77.079 221.717 77.2115 221.551 77.3818C221.386 77.5521 221.254 77.7555 221.157 77.992C221.064 78.2238 221.004 78.4793 220.974 78.7584L220.595 78.9712C220.595 78.5076 220.641 78.0724 220.733 77.6656C220.831 77.2588 220.979 76.8993 221.179 76.5871C221.378 76.2701 221.632 76.0241 221.938 75.8491C222.25 75.6693 222.62 75.5795 223.048 75.5795C223.145 75.5795 223.257 75.5913 223.384 75.6149C223.51 75.6339 223.598 75.6551 223.647 75.6788Z" fill="#2A2A2A"/>
<path d="M228.028 83.5409C227.478 83.5409 226.979 83.4511 226.531 83.2713C226.088 83.0868 225.706 82.829 225.384 82.4979C225.068 82.1667 224.825 81.7741 224.654 81.3199C224.484 80.8658 224.399 80.3691 224.399 79.8298V79.5318C224.399 78.9074 224.494 78.3515 224.684 77.8643C224.873 77.3723 225.131 76.956 225.457 76.6154C225.784 76.2748 226.154 76.017 226.567 75.842C226.981 75.667 227.409 75.5795 227.852 75.5795C228.417 75.5795 228.904 75.6741 229.313 75.8633C229.726 76.0525 230.065 76.3174 230.328 76.658C230.59 76.9939 230.785 77.3912 230.912 77.8501C231.038 78.3042 231.101 78.8009 231.101 79.3402V79.9292H225.202V78.8577H229.751V78.7584C229.731 78.4178 229.658 78.0866 229.532 77.765C229.41 77.4433 229.215 77.1784 228.948 76.9702C228.68 76.7621 228.315 76.658 227.852 76.658C227.546 76.658 227.263 76.7219 227.005 76.8496C226.747 76.9726 226.526 77.1571 226.341 77.4031C226.156 77.6491 226.012 77.9494 225.91 78.3042C225.808 78.659 225.757 79.0682 225.757 79.5318V79.8298C225.757 80.1941 225.808 80.537 225.91 80.8587C226.017 81.1757 226.171 81.4548 226.37 81.696C226.575 81.9373 226.82 82.1265 227.108 82.2637C227.4 82.4009 227.731 82.4695 228.101 82.4695C228.578 82.4695 228.982 82.3749 229.313 82.1856C229.644 81.9964 229.933 81.7433 230.181 81.4264L230.999 82.0579C230.829 82.3086 230.612 82.5475 230.349 82.7746C230.087 83.0017 229.763 83.1861 229.378 83.3281C228.999 83.47 228.548 83.5409 228.028 83.5409Z" fill="#2A2A2A"/>
<path d="M237.658 81.9089V72.4999H239.016V83.399H237.775L237.658 81.9089ZM232.343 79.6453V79.4963C232.343 78.9097 232.416 78.3776 232.562 77.8998C232.713 77.4173 232.924 77.0033 233.197 76.658C233.474 76.3127 233.803 76.0478 234.183 75.8633C234.567 75.6741 234.996 75.5795 235.468 75.5795C235.964 75.5795 236.397 75.6646 236.767 75.8349C237.142 76.0005 237.459 76.2441 237.716 76.5658C237.979 76.8827 238.186 77.2659 238.337 77.7153C238.488 78.1647 238.593 78.6732 238.651 79.2409V79.8937C238.598 80.4566 238.493 80.9628 238.337 81.4122C238.186 81.8616 237.979 82.2448 237.716 82.5617C237.459 82.8787 237.142 83.1223 236.767 83.2926C236.393 83.4581 235.954 83.5409 235.453 83.5409C234.991 83.5409 234.567 83.444 234.183 83.25C233.803 83.0561 233.474 82.784 233.197 82.434C232.924 82.0839 232.713 81.6724 232.562 81.1993C232.416 80.7215 232.343 80.2035 232.343 79.6453ZM233.701 79.4963V79.6453C233.701 80.0285 233.74 80.388 233.818 80.7239C233.9 81.0598 234.027 81.3554 234.197 81.6109C234.368 81.8663 234.584 82.0674 234.847 82.214C235.11 82.3559 235.424 82.4269 235.789 82.4269C236.237 82.4269 236.604 82.3346 236.891 82.1502C237.183 81.9657 237.417 81.722 237.592 81.4193C237.768 81.1165 237.904 80.7878 238.001 80.433V78.7229C237.943 78.4627 237.858 78.212 237.746 77.9707C237.639 77.7247 237.497 77.5071 237.322 77.3179C237.152 77.124 236.94 76.9702 236.687 76.8567C236.439 76.7432 236.144 76.6864 235.804 76.6864C235.434 76.6864 235.115 76.7621 234.847 76.9135C234.584 77.0601 234.368 77.2635 234.197 77.5237C234.027 77.7791 233.9 78.0772 233.818 78.4178C233.74 78.7536 233.701 79.1132 233.701 79.4963Z" fill="#2A2A2A"/>
<path d="M244.821 72.4999H246.179V81.9089L246.062 83.399H244.821V72.4999ZM251.516 79.4963V79.6453C251.516 80.2035 251.448 80.7215 251.312 81.1993C251.175 81.6724 250.976 82.0839 250.713 82.434C250.45 82.784 250.129 83.0561 249.749 83.25C249.369 83.444 248.934 83.5409 248.442 83.5409C247.941 83.5409 247.5 83.4581 247.121 83.2926C246.746 83.1223 246.429 82.8787 246.171 82.5617C245.914 82.2448 245.707 81.8616 245.551 81.4122C245.4 80.9628 245.295 80.4566 245.237 79.8937V79.2409C245.295 78.6732 245.4 78.1647 245.551 77.7153C245.707 77.2659 245.914 76.8827 246.171 76.5658C246.429 76.2441 246.746 76.0005 247.121 75.8349C247.495 75.6646 247.931 75.5795 248.428 75.5795C248.924 75.5795 249.365 75.6741 249.749 75.8633C250.134 76.0478 250.455 76.3127 250.713 76.658C250.976 77.0033 251.175 77.4173 251.312 77.8998C251.448 78.3776 251.516 78.9097 251.516 79.4963ZM250.158 79.6453V79.4963C250.158 79.1132 250.122 78.7536 250.049 78.4178C249.976 78.0772 249.859 77.7791 249.698 77.5237C249.537 77.2635 249.326 77.0601 249.063 76.9135C248.8 76.7621 248.476 76.6864 248.092 76.6864C247.751 76.6864 247.454 76.7432 247.201 76.8567C246.953 76.9702 246.741 77.124 246.566 77.3179C246.391 77.5071 246.247 77.7247 246.135 77.9707C246.028 78.212 245.948 78.4627 245.894 78.7229V80.433C245.972 80.7641 246.098 81.0834 246.274 81.3909C246.454 81.6937 246.692 81.942 246.989 82.136C247.291 82.3299 247.663 82.4269 248.106 82.4269C248.471 82.4269 248.783 82.3559 249.041 82.214C249.304 82.0674 249.516 81.8663 249.676 81.6109C249.842 81.3554 249.963 81.0598 250.041 80.7239C250.119 80.388 250.158 80.0285 250.158 79.6453Z" fill="#2A2A2A"/>
<path d="M255.357 82.6043L257.554 75.7214H259L255.831 84.584C255.758 84.7732 255.661 84.9766 255.539 85.1943C255.422 85.4166 255.271 85.6271 255.086 85.8258C254.901 86.0245 254.678 86.1853 254.415 86.3083C254.157 86.436 253.848 86.4999 253.487 86.4999C253.38 86.4999 253.244 86.4857 253.079 86.4573C252.913 86.4289 252.796 86.4053 252.728 86.3863L252.721 85.322C252.76 85.3267 252.821 85.3314 252.903 85.3362C252.991 85.3456 253.052 85.3504 253.086 85.3504C253.393 85.3504 253.653 85.3101 253.867 85.2297C254.081 85.154 254.261 85.024 254.407 84.8395C254.558 84.6597 254.687 84.4113 254.794 84.0944L255.357 82.6043ZM253.743 75.7214L255.795 81.6818L256.145 83.0655L255.174 83.548L252.268 75.7214H253.743Z" fill="#2A2A2A"/>
<path d="M293.511 83.5759C293.779 83.8463 293.913 84.1707 293.913 84.5493C293.913 84.9143 293.779 85.232 293.511 85.5024C293.243 85.7457 292.929 85.8741 292.567 85.8877C292.205 85.9147 291.884 85.7863 291.602 85.5024L288.568 82.4606V84.529C288.568 84.8805 288.434 85.1982 288.166 85.4821C287.898 85.7525 287.584 85.8877 287.222 85.8877C286.874 85.8877 286.559 85.7592 286.278 85.5024C285.996 85.232 285.856 84.9075 285.856 84.529V74.2882C285.856 73.9367 285.99 73.6258 286.257 73.3554C286.525 73.0715 286.847 72.9295 287.222 72.9295C287.597 72.9295 287.912 73.0647 288.166 73.3351C288.434 73.592 288.568 73.9097 288.568 74.2882V79.3782L291.602 76.3161C291.87 76.0457 292.185 75.9173 292.547 75.9308C292.909 75.9308 293.23 76.0592 293.511 76.3161C293.779 76.5865 293.913 76.9109 293.913 77.2895C293.913 77.6545 293.779 77.9722 293.511 78.2426L290.859 80.9194L293.511 83.5759Z" fill="#D22B6C"/>
<path d="M298.936 76.0727C299.579 76.0727 300.195 76.2079 300.785 76.4783C301.374 76.7487 301.89 77.1137 302.332 77.5734C302.787 78.0195 303.149 78.54 303.417 79.1348C303.685 79.7162 303.819 80.3313 303.819 80.9802C303.819 81.3317 303.685 81.6426 303.417 81.913C303.163 82.1834 302.841 82.3118 302.453 82.2983H297.108C297.55 82.9337 298.159 83.2514 298.936 83.2514C299.15 83.2514 299.331 83.2311 299.479 83.1906C299.626 83.15 299.753 83.1027 299.86 83.0486C299.981 82.9946 300.095 82.9472 300.202 82.9067C300.323 82.8661 300.457 82.8458 300.604 82.8458C300.885 82.8594 301.126 82.9405 301.327 83.0892C301.542 83.2379 301.696 83.4272 301.789 83.657C301.897 83.8733 301.93 84.1099 301.89 84.3668C301.863 84.6236 301.749 84.8602 301.548 85.0765C301.187 85.3739 300.785 85.5835 300.343 85.7052C299.901 85.8133 299.432 85.8741 298.936 85.8877C298.293 85.9147 297.677 85.7998 297.087 85.5429C296.498 85.2725 295.976 84.9143 295.52 84.4682C295.078 84.0085 294.723 83.4745 294.455 82.8661C294.201 82.2578 294.073 81.6291 294.073 80.9802C294.073 80.3448 294.201 79.7297 294.455 79.1348C294.723 78.54 295.078 78.0195 295.52 77.5734C295.962 77.1137 296.478 76.7487 297.067 76.4783C297.657 76.2079 298.28 76.0727 298.936 76.0727ZM300.765 79.6418C300.537 79.3579 300.269 79.1348 299.961 78.9726C299.653 78.7969 299.311 78.709 298.936 78.709C298.548 78.709 298.199 78.7969 297.891 78.9726C297.597 79.1348 297.335 79.3579 297.108 79.6418H300.765Z" fill="#D22B6C"/>
<path d="M306.038 72.9904C306.4 72.9904 306.701 73.1188 306.942 73.3757C307.197 73.6325 307.338 73.9502 307.364 74.3288V82.3389C307.364 82.6093 307.451 82.8391 307.626 83.0284C307.8 83.2176 308.021 83.3123 308.289 83.3123C308.637 83.3123 308.938 83.4339 309.193 83.6773C309.461 83.9206 309.601 84.2248 309.615 84.5898C309.615 84.9143 309.501 85.2049 309.273 85.4618C309.059 85.7052 308.778 85.8539 308.429 85.9079H308.148C307.679 85.9079 307.237 85.8133 306.822 85.624C306.406 85.4213 306.038 85.1576 305.717 84.8332C305.408 84.5087 305.161 84.1302 304.973 83.6976C304.799 83.2649 304.712 82.8121 304.712 82.3389V74.2477C304.752 73.9097 304.893 73.619 305.134 73.3757C305.375 73.1323 305.676 73.0039 306.038 72.9904Z" fill="#D22B6C"/>
<path d="M314.242 76.2553C314.899 76.2553 315.521 76.3837 316.111 76.6406C316.7 76.8974 317.216 77.2489 317.658 77.695C318.1 78.1412 318.448 78.6617 318.703 79.2565C318.971 79.8514 319.105 80.4935 319.105 81.183C319.105 81.859 318.978 82.4944 318.723 83.0892C318.469 83.6705 318.12 84.1842 317.678 84.6304C317.25 85.0765 316.74 85.428 316.151 85.6849C315.562 85.9417 314.925 86.0702 314.242 86.0702C313.572 86.0702 312.943 85.9485 312.353 85.7052C311.764 85.4618 311.248 85.1238 310.806 84.6912C310.364 84.2451 310.016 83.7246 309.761 83.1298C309.507 82.5349 309.379 81.886 309.379 81.183C309.379 80.507 309.5 79.8784 309.741 79.2971C309.996 78.7022 310.337 78.1885 310.766 77.7559C311.208 77.3098 311.724 76.9583 312.313 76.7014C312.916 76.431 313.559 76.2823 314.242 76.2553ZM314.242 78.9118C313.934 78.9118 313.646 78.9726 313.378 79.0943C313.11 79.2024 312.869 79.3579 312.655 79.5607C312.454 79.7635 312.293 80.0068 312.172 80.2907C312.052 80.5611 311.992 80.8585 311.992 81.183C311.992 81.4939 312.052 81.7914 312.172 82.0753C312.293 82.3456 312.454 82.589 312.655 82.8053C312.869 83.0081 313.11 83.1703 313.378 83.292C313.646 83.4137 313.934 83.4745 314.242 83.4745C314.55 83.4745 314.838 83.4137 315.106 83.292C315.387 83.1703 315.629 83.0081 315.83 82.8053C316.03 82.589 316.191 82.3456 316.312 82.0753C316.432 81.7914 316.493 81.4939 316.493 81.183C316.466 80.5611 316.245 80.0339 315.83 79.6013C315.414 79.1686 314.885 78.9388 314.242 78.9118Z" fill="#D22B6C"/>
<path d="M321.403 72.9904C321.765 72.9904 322.066 73.1188 322.307 73.3757C322.562 73.6325 322.702 73.9502 322.729 74.3288V82.3389C322.729 82.6093 322.816 82.8391 322.99 83.0284C323.165 83.2176 323.386 83.3123 323.653 83.3123C324.002 83.3123 324.303 83.4339 324.558 83.6773C324.826 83.9206 324.966 84.2248 324.98 84.5898C324.98 84.9143 324.866 85.2049 324.638 85.4618C324.424 85.7052 324.142 85.8539 323.794 85.9079H323.513C323.044 85.9079 322.602 85.8133 322.187 85.624C321.771 85.4213 321.403 85.1576 321.081 84.8332C320.773 84.5087 320.526 84.1302 320.338 83.6976C320.164 83.2649 320.077 82.8121 320.077 82.3389V74.2477C320.117 73.9097 320.258 73.619 320.499 73.3757C320.74 73.1323 321.041 73.0039 321.403 72.9904Z" fill="#D22B6C"/>
<path d="M330.7 76.093C331.303 76.1606 331.865 76.3364 332.388 76.6203C332.924 76.9042 333.379 77.2692 333.754 77.7153C334.143 78.1479 334.444 78.6481 334.658 79.216C334.886 79.7702 335 80.3583 335 80.9802V84.5695C335 84.9346 334.866 85.2455 334.598 85.5024C334.33 85.7592 334.029 85.8877 333.694 85.8877C333.225 85.8877 332.85 85.6714 332.569 85.2387C332.502 85.2658 332.441 85.2996 332.388 85.3401C332.334 85.3672 332.281 85.3942 332.227 85.4213C331.906 85.57 331.577 85.6849 331.242 85.766C330.894 85.8471 330.526 85.8877 330.137 85.8877C329.133 85.8877 328.235 85.6173 327.445 85.0765C326.654 84.5222 326.065 83.8125 325.676 82.9472C325.542 82.6363 325.435 82.3186 325.355 81.9941C325.288 81.6697 325.254 81.3317 325.254 80.9802C325.254 80.6287 325.288 80.2907 325.355 79.9663C325.435 79.6418 325.542 79.3241 325.676 79.0132C326.065 78.1344 326.654 77.4247 327.445 76.8839C328.235 76.3431 329.133 76.0727 330.137 76.0727C330.244 76.0727 330.338 76.0727 330.419 76.0727C330.512 76.0727 330.606 76.0795 330.7 76.093ZM330.117 83.2514C330.425 83.2514 330.713 83.1973 330.981 83.0892C331.263 82.9675 331.504 82.8053 331.705 82.6025C331.906 82.3997 332.066 82.1631 332.187 81.8927C332.307 81.6088 332.368 81.3047 332.368 80.9802C332.368 80.6828 332.307 80.3989 332.187 80.1285C332.066 79.8446 331.899 79.6013 331.684 79.3985C331.484 79.1822 331.242 79.0132 330.961 78.8915C330.693 78.7698 330.412 78.709 330.117 78.709C329.822 78.709 329.541 78.7698 329.273 78.8915C329.005 79.0132 328.764 79.1822 328.55 79.3985C328.349 79.6013 328.188 79.8446 328.068 80.1285C327.947 80.3989 327.887 80.6828 327.887 80.9802C327.887 81.2911 327.947 81.5886 328.068 81.8725C328.202 82.1429 328.369 82.3794 328.57 82.5822C328.784 82.785 329.025 82.9472 329.293 83.0689C329.561 83.1906 329.836 83.2514 330.117 83.2514Z" fill="#D22B6C"/>
<path d="M272.396 85.7482C272.954 86.1403 273.437 86.8309 273.009 87.3643C271.888 88.7623 267.778 88.76 267.325 87.426C266.868 86.0788 266.971 83.4863 267.162 82.2098C267.217 81.7609 267.747 81.7915 268.052 82.1229C268.929 83.0757 270.303 84.2781 272.396 85.7482Z" fill="#D22B6C"/>
<path d="M272.396 73.1714C272.954 72.7794 273.437 72.0888 273.009 71.5554C271.888 70.1573 267.778 70.1597 267.325 71.4936C266.868 72.8409 266.971 75.4333 267.162 76.7099C267.217 77.1588 267.747 77.1282 268.052 76.7967C268.929 75.844 270.303 74.6416 272.396 73.1714Z" fill="#D22B6C"/>
<path d="M267.852 79.7277H267.85V79.2202C267.847 78.5194 268.794 76.8845 272.699 74.1506C278.434 70.1364 279.683 69.6751 280.687 71.5898C281.144 72.4621 280.505 73.2481 279.673 74.2707C278.679 75.4931 277.41 77.0533 277.41 79.5027C277.412 81.9488 278.68 83.5077 279.673 84.7291C280.505 85.7517 281.144 86.5377 280.687 87.41C279.683 89.3247 278.434 88.8633 272.699 84.8492C268.694 82.0454 267.8 80.3976 267.852 79.7277Z" fill="#D22B6C"/>
</svg>
